# xmcd
#
# Track frame offsets: 
#        150
#        30675
#        54658
#        72230
#        93988
#        116214
#        136669
#        152429
#        172326
#        195907
#        208487
#        222257
#        245334
#        249014
#        273849
#        288869
#        306766
#
# Disc length: 4336 seconds
#
# Revision: 1
# Processed by: cddbd v1.5.2PL0 Copyright (c) Steve Scherf et al.
# Submitted via: ExactAudioCopyFreeDBPlugin 1.0
#
DISCID=f210ee11
DTITLE=UGK - Underground Kingz [CD2]
DYEAR=2007
DGENRE=Rap
TTITLE0=How Long Can It Last Feat. Charlie Wilson
TTITLE1=Still Ridin' Dirty Feat. Scarface
TTITLE2=Stop-N-Go Feat. Jazze Pha
TTITLE3=Cocaine Feat. Rick Ross
TTITLE4=Two Type Of Bitches Feat. Dizzee Rascal and Pimpin Ken
TTITLE5=Real Women Feat. Talib Kweli and Raheem DeVaughn
TTITLE6=Candy
TTITLE7=Tell Me How Ya Feel
TTITLE8=Shattered Dreams
TTITLE9=Like That
TTITLE10=Next Up Feat. Big Daddy Kane and Kool G Rap
TTITLE11=Living This Life
TTITLE12=Outro
TTITLE13=Int'l Players Anthem (I Choose You) Feat. Three 6 Mafia (Chop
TTITLE13=ped and Screwed)
TTITLE14=Int'l Players Anthem (I Choose You) Feat. Three 6 Mafia
TTITLE15=Hit The Block Feat. T.I.
TTITLE16=Top Drop Dyne Feat. Cory Mo
EXTD=
EXTT0=
EXTT1=
EXTT2=
EXTT3=
EXTT4=
EXTT5=
EXTT6=
EXTT7=
EXTT8=
EXTT9=
EXTT10=
EXTT11=
EXTT12=
EXTT13=
EXTT14=
EXTT15=
EXTT16=
PLAYORDER=
